<?xml version="1.0" encoding="UTF-8"?>
<svg id="Camada_2" data-name="Camada 2" xmlns="http://www.w3.org/2000/svg" xmlns:xlink="http://www.w3.org/1999/xlink" viewBox="0 0 553.65 136.56">
  <defs>
    <style>
      .cls-1 {
        fill: url(#Gradiente_sem_nome_7);
      }

      .cls-2 {
        fill: #f6f2ef;
      }

      .cls-3 {
        fill: url(#Gradiente_sem_nome_7-2);
      }
    </style>
    <linearGradient id="Gradiente_sem_nome_7" data-name="Gradiente sem nome 7" x1="53.71" y1="68.27" x2="-2.94" y2="7.88" gradientUnits="userSpaceOnUse">
      <stop offset="0" stop-color="#38e869"/>
      <stop offset=".16" stop-color="#48ea5d"/>
      <stop offset=".45" stop-color="#72f040"/>
      <stop offset=".86" stop-color="#b6fb10"/>
      <stop offset="1" stop-color="#cfff00"/>
    </linearGradient>
    <linearGradient id="Gradiente_sem_nome_7-2" data-name="Gradiente sem nome 7" x1="353.11" y1="78.96" x2="413.46" y2="78.96" xlink:href="#Gradiente_sem_nome_7"/>
  </defs>
  <g id="Camada_1-2" data-name="Camada 1">
    <path class="cls-2" d="M134.93,91.65c0,9.62-7.8,17.49-17.48,17.49s-17.48-7.87-17.48-17.49,7.87-17.48,17.48-17.48,17.48,7.8,17.48,17.48ZM117.45,101.2c5.25,0,9.55-4.3,9.55-9.55s-4.3-9.55-9.55-9.55-9.55,4.3-9.55,9.55,4.3,9.55,9.55,9.55Z"/>
    <path class="cls-2" d="M140.72,109.13v-33.62h7.94v3.63c2.49-2.62,6.12-4.3,10.09-4.3,7.8,0,13.18,5.51,13.18,14.06v20.24h-7.94v-18.56c0-5.65-2.96-8.27-7.2-8.27-4.57,0-8.14,3.36-8.14,8.67v18.16h-7.94Z"/>
    <path class="cls-2" d="M180.26,74.83c1.75,0,2.96-1.14,2.96-2.89v-6.12h7.94v9.01h8.54v7.94h-8.54v12.04c0,5.31.81,6.66,4.04,6.66,1.48,0,2.82-.2,4.51-.54v7.53c-1.55.4-3.77.67-5.58.67-7.67,0-10.89-3.5-10.89-11.97v-14.39h-6.19v-7.94h3.23Z"/>
    <path class="cls-2" d="M206.01,109.13v-33.62h7.94v3.83c2.29-2.69,5.78-4.51,10.09-4.51v7.53c-.27-.07-.61-.07-.87-.07-5.04,0-9.21,3.56-9.21,8.67v18.16h-7.94Z"/>
    <path class="cls-2" d="M242.46,74.16c4.24,0,8.14,2.22,10.36,4.84v-4.17h7.94v33.62h-7.94v-4.3c-2.22,2.76-6.12,4.98-10.36,4.98-9.62,0-16.68-7.87-16.68-17.49s7.06-17.48,16.68-17.48ZM233.72,91.65c0,5.25,4.3,9.55,9.55,9.55s9.55-4.3,9.55-9.55-4.3-9.55-9.55-9.55-9.55,4.3-9.55,9.55Z"/>
    <path class="cls-2" d="M268.82,74.83c1.75,0,2.96-1.14,2.96-2.89v-6.12h7.94v9.01h8.54v7.94h-8.54v12.04c0,5.31.81,6.66,4.04,6.66,1.48,0,2.82-.2,4.51-.54v7.53c-1.55.4-3.77.67-5.58.67-7.67,0-10.89-3.5-10.89-11.97v-14.39h-6.19v-7.94h3.23Z"/>
    <path class="cls-2" d="M327.19,91.65c0,9.62-7.8,17.49-17.48,17.49s-17.48-7.87-17.48-17.49,7.87-17.48,17.48-17.48,17.48,7.8,17.48,17.48ZM309.71,101.2c5.25,0,9.55-4.3,9.55-9.55s-4.3-9.55-9.55-9.55-9.55,4.3-9.55,9.55,4.3,9.55,9.55,9.55Z"/>
    <path class="cls-1" d="M82.8,25.24v30.64c0,.71-.76,1.14-1.38.79-4.34-2.45-9.35-3.86-14.6-3.86-16.25,0-29.58,13.33-29.58,29.58,0,5.7,1.64,11.04,4.47,15.58.43.68-.06,1.56-.87,1.56h-24.81c-.2,0-.39,0-.58-.01-8.59-.3-15.46-7.37-15.46-16.03V5.01C0,2.24,2.24,0,5.01,0h52.55c3.22,0,6.3,1.28,8.57,3.55l13.12,13.12c2.27,2.27,3.55,5.36,3.55,8.57Z"/>
    <path class="cls-2" d="M418.83,109.13v-32.23h7.6v3.48c2.38-2.51,5.87-4.12,9.67-4.12,7.48,0,12.63,5.28,12.63,13.47v19.4h-7.6v-17.79c0-5.41-2.84-7.93-6.9-7.93-4.38,0-7.8,3.22-7.8,8.31v17.4h-7.6Z"/>
    <path class="cls-2" d="M463.81,109.13h-7.6v-48.34h7.6v48.34Z"/>
    <path class="cls-2" d="M475.09,62.08c2.51,0,4.51,2.06,4.51,4.51s-2,4.58-4.51,4.58-4.51-2.06-4.51-4.58,2-4.51,4.51-4.51ZM471.29,109.13v-32.23h7.61v32.23h-7.61Z"/>
    <path class="cls-2" d="M486.37,109.13v-32.23h7.6v3.48c2.38-2.51,5.87-4.12,9.67-4.12,7.48,0,12.63,5.28,12.63,13.47v19.4h-7.6v-17.79c0-5.41-2.84-7.93-6.9-7.93-4.38,0-7.8,3.22-7.8,8.31v17.4h-7.6Z"/>
    <path class="cls-2" d="M538.25,75.62c9.15,0,15.4,6.7,15.4,16.31,0,1.23-.19,2.58-.32,3.87h-23.98c1.29,4,4.9,6.45,9.67,6.45,3.09,0,6.06-1.1,7.99-3.22l4.83,4.83c-3.09,3.42-7.61,5.29-12.89,5.29-9.73,0-17.14-7.28-17.14-16.76s7.09-16.76,16.43-16.76ZM529.23,89.86h17.27c-.64-4.58-4.06-7.41-8.38-7.41s-8.25,2.96-8.89,7.41Z"/>
    <circle class="cls-3" cx="383.29" cy="78.96" r="30.17"/>
    <path class="cls-2" d="M66.82,111.97c-9.88,0-18.67-4.92-24.06-12.44-3.47-4.85-5.52-10.77-5.52-17.14,0-16.25,13.33-29.58,29.58-29.58,5.81,0,11.34,1.74,15.98,4.69,2.18,1.38,4.16,3.03,5.89,4.89l17.29-17.29c-6.26-6.66-14.22-11.7-23.18-14.47-5.05-1.56-10.42-2.4-15.98-2.4-29.79,0-54.16,24.16-54.16,54.16,0,5.98.98,11.74,2.79,17.13,7.21,21.46,27.56,37.03,51.36,37.03,15.42,0,29.37-6.46,39.16-16.87l-17.29-17.5c-5.42,6.04-13.33,9.79-21.87,9.79Z"/>
  </g>
</svg>