<?xml version="1.0" encoding="UTF-8"?>
<svg id="Camada_2" data-name="Camada 2" xmlns="http://www.w3.org/2000/svg" xmlns:xlink="http://www.w3.org/1999/xlink" viewBox="0 0 224.65 254.33">
  <defs>
    <style>
      .cls-1 {
        fill: url(#Gradiente_sem_nome_7);
      }

      .cls-2 {
        fill: #f6f2ef;
      }

      .cls-3 {
        fill: url(#Gradiente_sem_nome_7-2);
      }
    </style>
    <linearGradient id="Gradiente_sem_nome_7" data-name="Gradiente sem nome 7" x1="100.04" y1="127.15" x2="-5.47" y2="14.67" gradientUnits="userSpaceOnUse">
      <stop offset="0" stop-color="#38e869"/>
      <stop offset=".16" stop-color="#48ea5d"/>
      <stop offset=".45" stop-color="#72f040"/>
      <stop offset=".86" stop-color="#b6fb10"/>
      <stop offset="1" stop-color="#cfff00"/>
    </linearGradient>
    <linearGradient id="Gradiente_sem_nome_7-2" data-name="Gradiente sem nome 7" x1="180.73" y1="185.17" x2="224.65" y2="185.17" xlink:href="#Gradiente_sem_nome_7"/>
  </defs>
  <g id="Camada_1-2" data-name="Camada 1">
    <path class="cls-1" d="M154.22,47.01v57.07c0,1.32-1.42,2.13-2.57,1.48-8.09-4.56-17.42-7.19-27.19-7.19-30.26,0-55.08,24.83-55.08,55.09,0,10.62,3.06,20.57,8.33,29.01.79,1.27-.12,2.91-1.61,2.91H29.89c-.37,0-.73,0-1.09-.02-16-.57-28.8-13.72-28.8-29.86V9.33C0,4.17,4.18,0,9.33,0h97.88c5.99,0,11.73,2.38,15.97,6.61l24.43,24.43c4.23,4.23,6.61,9.98,6.61,15.97Z"/>
    <circle class="cls-3" cx="202.69" cy="185.17" r="21.96"/>
    <path class="cls-2" d="M124.46,208.55c-18.39,0-34.78-9.17-44.8-23.16-6.46-9.03-10.28-20.06-10.28-31.93,0-30.26,24.82-55.09,55.08-55.09,10.83,0,21.11,3.23,29.76,8.73,4.05,2.57,7.75,5.65,10.98,9.12l32.2-32.2c-11.66-12.41-26.49-21.8-43.17-26.95-9.41-2.91-19.41-4.47-29.76-4.47-55.47,0-100.86,45-100.86,100.86,0,11.14,1.83,21.86,5.2,31.9,13.42,39.97,51.32,68.97,95.66,68.97,28.71,0,54.7-12.03,72.94-31.42l-32.2-32.6c-10.09,11.26-24.83,18.24-40.74,18.24Z"/>
  </g>
</svg>